<?xml version="1.0" standalone="no"?>
<!DOCTYPE svg PUBLIC "-//W3C//DTD SVG 20010904//EN"
 "http://www.w3.org/TR/2001/REC-SVG-20010904/DTD/svg10.dtd">
<svg version="1.0" xmlns="http://www.w3.org/2000/svg"
 width="20.000000pt" height="20.000000pt" viewBox="0 0 20.000000 20.000000"
 preserveAspectRatio="xMidYMid meet">

<g transform="translate(0.000000,20.000000) scale(0.100000,-0.100000)"
fill="#000000" stroke="none">
<path d="M78 193 c10 -4 10 -8 -3 -17 -9 -6 -16 -29 -18 -53 -2 -37 -4 -42
-22 -37 -19 6 -20 6 -1 -8 11 -9 16 -20 12 -27 -6 -9 -11 -9 -22 0 -12 10 -13
9 -8 -5 3 -9 15 -21 26 -27 14 -8 18 -8 14 0 -10 16 5 61 20 61 8 0 14 -9 14
-19 0 -28 21 -37 37 -16 12 17 13 18 13 1 0 -9 4 -14 10 -11 6 3 10 15 10 26
0 11 -4 18 -9 14 -6 -3 -9 4 -8 15 2 26 22 33 38 13 11 -12 10 -20 -4 -45 -10
-17 -16 -33 -13 -35 8 -8 36 55 36 81 0 20 -4 24 -27 21 -17 -2 -32 4 -40 14
-8 10 -12 12 -13 4 0 -17 -10 -16 -34 2 -20 15 -20 15 0 30 27 20 38 19 73
-11 21 -17 29 -20 25 -10 -9 22 -57 46 -91 45 -15 0 -22 -3 -15 -6z m44 -87
c4 -6 5 -20 3 -31 -2 -11 -4 -23 -4 -27 -2 -17 -21 -7 -21 11 0 10 -10 25 -22
33 -27 18 -16 42 15 32 12 -4 25 -12 29 -18z"/>
<path d="M42 183 c-7 -2 -17 -14 -24 -26 -10 -20 -10 -21 6 -8 16 13 16 12 5
-13 -9 -19 -15 -23 -21 -14 -5 8 -8 1 -8 -19 0 -18 2 -33 3 -33 5 0 43 78 51
103 3 9 4 17 3 16 -1 0 -8 -3 -15 -6z"/>
<path d="M83 3 c9 -2 25 -2 35 0 9 3 1 5 -18 5 -19 0 -27 -2 -17 -5z"/>
</g>
</svg>
